<?xml version="1.0" encoding="UTF-8"?>
<svg version="1.1" xmlns="http://www.w3.org/2000/svg" width="241" height="213">
<path d="M0 0 C79.53 0 159.06 0 241 0 C241 70.29 241 140.58 241 213 C161.47 213 81.94 213 0 213 C0 142.71 0 72.42 0 0 Z " fill="#318EB4" transform="translate(0,0)"/>
<path d="M0 0 C79.53 0 159.06 0 241 0 C241 70.29 241 140.58 241 213 C161.47 213 81.94 213 0 213 C0 142.71 0 72.42 0 0 Z M128.55078125 9.96875 C127.70322266 10.37480469 126.85566406 10.78085938 125.98242188 11.19921875 C124.66081055 11.84310547 124.66081055 11.84310547 123.3125 12.5 C122.41982422 12.92925781 121.52714844 13.35851562 120.60742188 13.80078125 C118.40239215 14.8620255 116.20010791 15.92859905 114 17 C114 17.66 114 18.32 114 19 C113.05125 19.226875 112.1025 19.45375 111.125 19.6875 C105.45317686 21.29973603 99.2004893 23.7995107 95 28 C93.0546875 28.8515625 93.0546875 28.8515625 90.875 29.625 C90.15054688 29.88539062 89.42609375 30.14578125 88.6796875 30.4140625 C88.12539062 30.60742188 87.57109375 30.80078125 87 31 C86.80087989 37.07316326 87.36603928 42.45073191 88.5546875 48.40234375 C89.11611488 51.67733677 89.14721042 54.6877656 89 58 C88.2575 57.0925 87.515 56.185 86.75 55.25 C84.61486285 52.6975131 82.48284531 50.22599924 80 48 C79.34 48 78.68 48 78 48 C77.7525 47.401875 77.505 46.80375 77.25 46.1875 C75.73978707 43.54462737 74.71973773 42.39662208 72 41 C65.85759608 41.29396895 61.5515953 43.51291961 56.3125 46.4375 C54.64691573 47.34184013 52.98020768 48.24411294 51.3125 49.14453125 C50.01892578 49.84570068 50.01892578 49.84570068 48.69921875 50.56103516 C44.11507295 53.00486252 39.46506253 55.31483422 34.8125 57.625 C33.93311768 58.06255615 33.05373535 58.5001123 32.14770508 58.95092773 C30.09934416 59.96906371 28.05017134 60.98551585 26 62 C26 62.66 26 63.32 26 64 C25.01 64 24.02 64 23 64 C23.65887301 72.83615195 24.84242978 81.57803205 26.10180664 90.34399414 C26.43826242 92.69282251 26.76719425 95.04262671 27.09570312 97.39257812 C27.31204617 98.91152304 27.52882789 100.43040556 27.74609375 101.94921875 C27.84200302 102.63900314 27.93791229 103.32878754 28.03672791 104.03947449 C28.7279686 108.78913182 29.77659719 113.35819909 31 118 C32.134375 118.19335938 33.26875 118.38671875 34.4375 118.5859375 C35.95836032 118.84880225 37.47919214 119.11183192 39 119.375 C40.11568359 119.56449219 40.11568359 119.56449219 41.25390625 119.7578125 C46.23805579 120.62462112 51.10513747 121.72066093 56 123 C51.38 125.31 46.76 127.62 42 130 C42 130.66 42 131.32 42 132 C41.05125 132.309375 40.1025 132.61875 39.125 132.9375 C36.13919592 133.87394742 36.13919592 133.87394742 34 135 C34.68733281 141.6107847 35.59330416 148.15810984 36.62890625 154.72265625 C36.8598423 156.20178749 36.8598423 156.20178749 37.09544373 157.71080017 C37.58261274 160.82832622 38.07251071 163.94541611 38.5625 167.0625 C38.89536348 169.18942478 39.22804754 171.31637764 39.56054688 173.44335938 C40.37162403 178.62923276 41.1849359 183.81475183 42 189 C48.88587895 190.14493333 55.77277074 191.28361507 62.66040039 192.41796875 C65.00308605 192.80455161 67.34553663 193.19256186 69.68774414 193.58203125 C73.05554304 194.14178413 76.42415557 194.69638851 79.79296875 195.25 C81.36198189 195.51248535 81.36198189 195.51248535 82.96269226 195.78027344 C83.94333145 195.94043945 84.92397064 196.10060547 85.93432617 196.265625 C86.79370285 196.40774414 87.65307953 196.54986328 88.53849792 196.69628906 C91.05146697 197.00635022 93.47067144 197.0531705 96 197 C97.27182393 194.62552587 98.54248424 192.25044103 99.8125 189.875 C100.16892578 189.20984375 100.52535156 188.5446875 100.89257812 187.859375 C101.93446945 185.90941325 102.96786758 183.9551407 104 182 C104.58136719 180.90945312 105.16273437 179.81890625 105.76171875 178.6953125 C107.20873539 176.04001328 107.20873539 176.04001328 107 173 C107.66 173 108.32 173 109 173 C109.07347656 173.91265625 109.07347656 173.91265625 109.1484375 174.84375 C109.86632871 183.26040551 110.91755935 191.62422141 112 200 C113.46875 200.24479167 114.9375 200.48958333 116.40625 200.734375 C117.36668213 200.89454102 118.32711426 201.05470703 119.31665039 201.21972656 C121.45894307 201.57658366 123.60136095 201.93268981 125.74389648 202.28808594 C131.39619489 203.22676753 137.04590415 204.17746326 142.69140625 205.15625 C143.76003906 205.33961914 144.82867187 205.52298828 145.9296875 205.71191406 C147.9760625 206.06339555 150.02168034 206.41932215 152.06640625 206.78027344 C157.12510253 207.6436567 161.86802883 208.19929985 167 208 C167.4846875 207.030625 167.969375 206.06125 168.46875 205.0625 C177.06640625 187.8671875 177.06640625 187.8671875 178.07055664 185.86035156 C178.73146251 184.53756383 179.39080772 183.21399519 180.04858398 181.88964844 C181.69441745 178.58080759 183.36600858 175.29035154 185.09375 172.0234375 C185.59056274 171.07041748 185.59056274 171.07041748 186.09741211 170.09814453 C187.00607305 168.35805768 187.92648439 166.62412128 188.84765625 164.890625 C190.17417659 162.17757321 190.17417659 162.17757321 189.8359375 159.8125 C188.3821546 156.6603726 186.36798921 154.54125671 184 152 C183.34 152 182.68 152 182 152 C181.67 151.01 181.34 150.02 181 149 C179.3777546 147.29006566 177.70586575 145.62652316 176 144 C174.6642621 142.66907557 173.33049344 141.33616719 172 140 C173.03833984 140.30744141 173.03833984 140.30744141 174.09765625 140.62109375 C182.46115623 142.9240865 190.36923242 143.65807068 199 144 C203.15750994 137.67335444 206.84584954 131.61739303 208 124 C208.66 124 209.32 124 210 124 C214.0352294 116.15292184 214.0352294 116.15292184 217.6875 108.125 C219 105 219 105 220.75 101.875 C222.16613588 99.14038482 222.16613588 99.14038482 222 96.5 C219.87644184 91.1911046 215.961933 87.88444027 211.58984375 84.40234375 C209.76546608 82.7931261 208.25637124 81.04623197 206.6875 79.1875 C203.4342537 75.3643946 199.86590215 72.10562942 196.078125 68.8203125 C193.00064828 66.12462801 190.05963125 63.32453906 187.5 60.125 C186.01984857 58.76306509 186.01984857 58.76306509 183.8125 59.125 C175.44539849 61.72809825 168.4887593 65.44433809 161 70 C161.598125 68.989375 162.19625 67.97875 162.8125 66.9375 C164.83777949 63.39859057 166.41703363 59.75954513 168 56 C169.05773001 53.95377321 170.130059 51.91813121 171.23046875 49.89453125 C172.25088387 47.7231507 172.25088387 47.7231507 172 44 C170.39850607 42.13159041 168.84040642 40.61807544 167 39 C161.22671273 33.91990331 155.83519742 28.82560103 150.80859375 23 C148.40650868 20.34369858 145.79519769 18.23615815 143 16 C140.28367651 13.40714576 138.08430146 11.12645219 136 8 C132.77312773 8 131.41338708 8.58547738 128.55078125 9.96875 Z " fill="#FDFEFD" transform="translate(0,0)"/>
<path d="M0 0 C3.46316786 3.08877133 6.41674416 6.59289637 9.375 10.15625 C11.48132589 12.54611976 13.73596634 14.75900156 16 17 C16.98022996 17.98983357 17.9593621 18.98075529 18.9375 19.97265625 C19.95830996 21.00262733 20.97914353 22.03257501 22 23.0625 C22.50789063 23.57876953 23.01578125 24.09503906 23.5390625 24.62695312 C27.09289151 28.20356309 30.80355078 31.38927057 34.875 34.375 C36 36 36 36 36 38.625 C34.88511293 42.38774386 33.24054239 45.38380495 31.26953125 48.7578125 C29.57446964 51.75155208 28.30934342 54.82016598 27 58 C26.34189997 59.33758236 25.67701784 60.67189267 25 62 C25.76183594 61.54109375 26.52367187 61.0821875 27.30859375 60.609375 C43.37631566 51.06101591 43.37631566 51.06101591 48.6875 50.9375 C54.50333495 53.60964038 57.98963866 58.18756639 62 63 C63.45698066 64.20359272 64.91475443 65.40657871 66.39453125 66.58203125 C68.98082308 68.8662744 71.11159093 71.53248407 73.34375 74.15625 C75.356867 76.39726704 77.64476611 78.12789101 80 80 C85.94078437 85.6084328 85.94078437 85.6084328 86.125 89.9375 C84.98127893 93.05096292 83.6557886 95.92512704 82.109375 98.85546875 C80.95927419 101.07872701 79.93967283 103.33156603 78.9375 105.625 C77.39607539 109.14042292 75.75211745 112.58337097 74 116 C73.34 116 72.68 116 72 116 C71.9071875 116.67546875 71.814375 117.3509375 71.71875 118.046875 C70.82306212 121.72698392 69.22708561 124.90680617 67.5 128.25 C67.01853516 129.20519531 67.01853516 129.20519531 66.52734375 130.1796875 C64.15496483 134.84503517 64.15496483 134.84503517 63 136 C60.72711391 135.96096761 58.45550172 135.84145756 56.1875 135.6875 C54.94355469 135.60886719 53.69960937 135.53023437 52.41796875 135.44921875 C47.99538935 135.06339074 43.65298889 134.30980396 39.28051758 133.55493164 C33.45122868 132.5688504 27.59935495 131.73239731 21.75 130.875 C20.51636719 130.69324219 19.28273438 130.51148438 18.01171875 130.32421875 C15.00795925 129.88180456 12.00405316 129.44041496 9 129 C7.8422494 125.52674819 7.93133348 122.63932552 8 119 C1.97436559 121.61611173 -3.56043801 124.29120773 -9 128 C-11.30965848 129.05352843 -13.6429774 130.05719096 -16 131 C-16.886875 131.4125 -17.77375 131.825 -18.6875 132.25 C-21.4558092 133.14783001 -22.29919277 133.0268235 -25 132 C-28.31716187 129.32965261 -31.30701473 126.33506591 -34.32885742 123.33691406 C-35.80659791 121.88081565 -37.31103875 120.4566216 -38.81835938 119.03125 C-39.75099609 118.11085938 -40.68363281 117.19046875 -41.64453125 116.2421875 C-42.50409424 115.4054248 -43.36365723 114.56866211 -44.24926758 113.70654297 C-46 111 -46 111 -45.7722168 107.17236328 C-45.51738525 106.1254834 -45.26255371 105.07860352 -45 104 C-44.34 104 -43.68 104 -43 104 C-42.84144531 103.35933594 -42.68289062 102.71867187 -42.51953125 102.05859375 C-41.11142781 96.83849759 -39.55220186 92.97280235 -36.20703125 88.73828125 C-34.12491242 85.7397606 -33.14901471 82.44704412 -32 79 C-31.34 79 -30.68 79 -30 79 C-28.69608837 75.47784846 -28.32536942 72.71282704 -29 69 C-32.58149667 63.33818369 -38.01735604 58.35199827 -43.25390625 54.22265625 C-46.04167542 50.67401943 -46.46824134 46.68586297 -47.25 42.3125 C-47.42273438 41.45205078 -47.59546875 40.59160156 -47.7734375 39.70507812 C-48.84738213 34.04982207 -49.16320108 28.75283799 -49 23 C-48.40832031 22.74605469 -47.81664063 22.49210937 -47.20703125 22.23046875 C-42.33823566 20.10980248 -37.84755868 17.79917009 -33.35546875 14.9609375 C-29.56520864 12.66531155 -26.49950645 11.43897624 -22 11 C-22 10.34 -22 9.68 -22 9 C-18.90034597 7.4905412 -15.79458597 5.99409333 -12.6875 4.5 C-11.80642578 4.07074219 -10.92535156 3.64148438 -10.01757812 3.19921875 C-8.74624023 2.59013672 -8.74624023 2.59013672 -7.44921875 1.96875 C-6.66893311 1.59169922 -5.88864746 1.21464844 -5.0847168 0.82617188 C-3 0 -3 0 0 0 Z " fill="#E7BD28" transform="translate(136,8)"/>
<path d="M0 0 C2.32412516 1.47450393 4.00419767 3.05061168 6 5 C6 5.66 6 6.32 6 7 C6.99 7.33 7.98 7.66 9 8 C10.28726685 9.48035688 11.57151986 10.96488598 12.79296875 12.5 C14.0937903 14.11655494 15.4941665 15.57342089 17 17 C17.99 16.505 17.99 16.505 19 16 C19.39316406 16.721875 19.78632812 17.44375 20.19140625 18.1875 C22.15467622 21.24053322 24.32498697 23.48570175 26.9375 26 C35.82615981 34.58030509 35.82615981 34.58030509 36.375 39.0625 C36.01777222 41.86078426 35.46607416 43.61762948 34 46 C33.34 46 32.68 46 32 46 C31.82984375 46.58007812 31.6596875 47.16015625 31.484375 47.7578125 C29.91450285 52.81814507 27.97263389 56.58608908 25 61 C23.54634022 64.28933936 22.25231151 67.62941689 21 71 C20.34 71 19.68 71 19 71 C18.67 73.31 18.34 75.62 18 78 C17.38125 77.21625 16.7625 76.4325 16.125 75.625 C14.10141339 73.03162353 14.10141339 73.03162353 12 71 C5.56818193 71.25222816 0.56684307 73.43315693 -4 78 C-5.32 78 -6.64 78 -8 78 C-8 78.99 -8 79.98 -8 81 C-12.1952854 81.86766923 -15.51618854 81.9923694 -19.73046875 81.2578125 C-20.78041016 81.07863281 -21.83035156 80.89945312 -22.91210938 80.71484375 C-23.99298828 80.52019531 -25.07386719 80.32554688 -26.1875 80.125 C-27.27998047 79.93808594 -28.37246094 79.75117187 -29.49804688 79.55859375 C-37.49016651 78.1699445 -37.49016651 78.1699445 -41 77 C-42.64037274 71.73585865 -43.49588956 66.40091363 -44.25390625 60.94921875 C-44.35968491 60.20976517 -44.46546356 59.47031158 -44.57444763 58.70845032 C-44.79571102 57.15495963 -45.01493 55.60117648 -45.23217773 54.04711914 C-45.56030837 51.70315566 -45.89584472 49.36034199 -46.23242188 47.01757812 C-47.3694784 39.02575872 -48.399454 31.05392789 -49 23 C-48.01 23 -47.02 23 -46 23 C-46 22.34 -46 21.68 -46 21 C-44.86457764 20.43490723 -43.72915527 19.86981445 -42.55932617 19.28759766 C-38.34835156 17.19115816 -34.13869982 15.0920743 -29.92944336 12.9921875 C-28.10721251 12.08358695 -26.28462335 11.17570464 -24.46166992 10.26855469 C-21.84199073 8.96477751 -19.22360952 7.65842572 -16.60546875 6.3515625 C-15.78974899 5.94628326 -14.97402924 5.54100403 -14.1335907 5.1234436 C-13.37302872 4.74320038 -12.61246674 4.36295715 -11.82885742 3.97119141 C-11.16045334 3.63809967 -10.49204926 3.30500793 -9.8033905 2.96182251 C-3.25617854 -0.53007558 -3.25617854 -0.53007558 0 0 Z " fill="#51B16D" transform="translate(72,41)"/>
<path d="M0 0 C3.46316786 3.08877133 6.41674416 6.59289637 9.375 10.15625 C11.48132589 12.54611976 13.73596634 14.75900156 16 17 C16.98022996 17.98983357 17.9593621 18.98075529 18.9375 19.97265625 C19.95830996 21.00262733 20.97914353 22.03257501 22 23.0625 C22.50789063 23.57876953 23.01578125 24.09503906 23.5390625 24.62695312 C27.09289151 28.20356309 30.80355078 31.38927057 34.875 34.375 C36 36 36 36 36 38.625 C34.90454478 42.32216135 33.32806792 45.26643901 31.3515625 48.55859375 C29.99007337 51.01793105 28.89742018 53.53283692 27.8125 56.1237793 C26.40364363 59.37710297 24.78863875 62.52556126 23.1875 65.6875 C22.48305251 67.08722931 21.77862565 68.48696901 21.07421875 69.88671875 C20.72665527 70.57556152 20.3790918 71.2644043 20.02099609 71.97412109 C18.50657804 74.97905678 17.00343681 77.98955527 15.5 81 C14.66666667 82.66666667 13.83333333 84.33333333 13 86 C7.06639261 85.36123293 1.15557595 84.63964543 -4.75390625 83.80859375 C-5.54022934 83.69902847 -6.32655243 83.5894632 -7.13670349 83.47657776 C-9.61213353 83.13138501 -12.08731913 82.78447443 -14.5625 82.4375 C-16.2558434 82.20105747 -17.94920265 81.96472834 -19.64257812 81.72851562 C-23.76190273 81.15365252 -27.88100927 80.57725026 -32 80 C-31.01 79.505 -31.01 79.505 -30 79 C-28.42242584 75.54997801 -28.23434078 72.69989364 -29 69 C-32.61613363 63.34496504 -38.00586964 58.36105601 -43.25390625 54.22265625 C-46.04167542 50.67401943 -46.46824134 46.68586297 -47.25 42.3125 C-47.42273438 41.45205078 -47.59546875 40.59160156 -47.7734375 39.70507812 C-48.84738213 34.04982207 -49.16320108 28.75283799 -49 23 C-48.40832031 22.74605469 -47.81664063 22.49210937 -47.20703125 22.23046875 C-42.33823566 20.10980248 -37.84755868 17.79917009 -33.35546875 14.9609375 C-29.56520864 12.66531155 -26.49950645 11.43897624 -22 11 C-22 10.34 -22 9.68 -22 9 C-18.90034597 7.4905412 -15.79458597 5.99409333 -12.6875 4.5 C-11.80642578 4.07074219 -10.92535156 3.64148438 -10.01757812 3.19921875 C-8.74624023 2.59013672 -8.74624023 2.59013672 -7.44921875 1.96875 C-6.66893311 1.59169922 -5.88864746 1.21464844 -5.0847168 0.82617188 C-3 0 -3 0 0 0 Z " fill="#E25957" transform="translate(136,8)"/>
<path d="M0 0 C0.495 4.95 0.495 4.95 1 10 C1.95519531 10.04898438 2.91039062 10.09796875 3.89453125 10.1484375 C26.6208312 11.46262035 26.6208312 11.46262035 32 17 C32.9075 17.845625 33.815 18.69125 34.75 19.5625 C37 22 37 22 38 25 C38.598125 25.28875 39.19625 25.5775 39.8125 25.875 C42.80728731 27.41517633 44.21774117 29.1615878 46 32 C45.60032934 35.76003891 44.30213728 38.81738638 42.671875 42.203125 C42.20136719 43.18410156 41.73085937 44.16507813 41.24609375 45.17578125 C40.50552734 46.69751953 40.50552734 46.69751953 39.75 48.25 C39.03263672 49.74853516 39.03263672 49.74853516 38.30078125 51.27734375 C35.72771947 56.61174011 33.03519617 61.83929438 30.12060547 66.99462891 C28.5499683 69.80535084 27.1139427 72.67644152 25.6875 75.5625 C24.79166667 77.375 23.89583333 79.1875 23 81 C13.51815297 80.45483631 4.2892368 79.19322991 -5.0625 77.5625 C-6.33416016 77.34529297 -7.60582031 77.12808594 -8.91601562 76.90429688 C-11.41329932 76.47761885 -13.91022129 76.04881715 -16.40673828 75.61767578 C-21.60111987 74.72477013 -26.80013216 73.8602967 -32 73 C-33.72095033 61.50217384 -35.28326506 50.08942661 -35.70874023 38.46142578 C-35.78323127 34.60343332 -35.78323127 34.60343332 -37 31 C-37.23828125 28.72265625 -37.23828125 28.72265625 -37.3125 26.0625 C-37.34988281 25.18722656 -37.38726562 24.31195313 -37.42578125 23.41015625 C-36.86372015 20.22858101 -35.57124106 19.80429344 -33 18 C-32.66432698 16.66725377 -32.33075996 15.33397404 -32 14 C-30.10348068 13.20146555 -28.19575138 12.41999067 -26.2421875 11.7734375 C-20.19684973 9.68811193 -14.62759981 6.28249342 -9.078125 3.1484375 C-3.38095238 0 -3.38095238 0 0 0 Z " fill="#8D599D" transform="translate(144,127)"/>
<path d="M0 0 C12.05386004 0.33252028 23.27653828 2.26027797 35 5 C35.68276334 8.60130422 36.3431332 12.20639004 37 15.8125 C37.19078125 16.81732422 37.3815625 17.82214844 37.578125 18.85742188 C38.80038032 25.6453041 39.24504026 32.10739196 39 39 C38.01257813 39.48210937 37.02515625 39.96421875 36.0078125 40.4609375 C34.7134369 41.09874577 33.41917179 41.73677829 32.125 42.375 C31.47402344 42.69210938 30.82304687 43.00921875 30.15234375 43.3359375 C27.41822959 44.68890121 25.17227482 45.82772518 23 48 C20.68745988 49.04718798 18.3514852 50.04346365 16 51 C15.113125 51.4125 14.22625 51.825 13.3125 52.25 C10.5441908 53.14783001 9.70080723 53.0268235 7 52 C3.68283813 49.32965261 0.69298527 46.33506591 -2.32885742 43.33691406 C-3.80659791 41.88081565 -5.31103875 40.4566216 -6.81835938 39.03125 C-7.75099609 38.11085937 -8.68363281 37.19046875 -9.64453125 36.2421875 C-10.50409424 35.4054248 -11.36365723 34.56866211 -12.24926758 33.70654297 C-14 31 -14 31 -13.7722168 27.17236328 C-13.51738525 26.1254834 -13.26255371 25.07860352 -13 24 C-12.34 24 -11.68 24 -11 24 C-10.84144531 23.35933594 -10.68289062 22.71867187 -10.51953125 22.05859375 C-9.14092173 16.94783692 -7.70593955 12.93558838 -4.28125 8.86328125 C-2.37750126 6.09471982 -1.26856663 3.10872577 0 0 Z " fill="#FCFCFB" transform="translate(104,88)"/>
<path d="M0 0 C3.51956773 3.13907392 6.49462765 6.71813068 9.53125 10.3125 C10.79383708 11.76313196 12.14013618 13.14013618 13.5 14.5 C16.51915957 17.51915957 19.25799766 20.73032711 22 24 C21.01 24 20.02 24 19 24 C19 23.34 19 22.68 19 22 C18.34 22 17.68 22 17 22 C14.875 20.1875 14.875 20.1875 13 18 C13 17.01 13 16.02 13 15 C12.236875 15.0825 11.47375 15.165 10.6875 15.25 C8 15 8 15 6.1875 13 C5.5996875 12.01 5.5996875 12.01 5 11 C4.01 11.33 3.02 11.66 2 12 C1.67 11.34 1.34 10.68 1 10 C-0.65 10.33 -2.3 10.66 -4 11 C-4.33 10.01 -4.66 9.02 -5 8 C-7.97 7.505 -7.97 7.505 -11 7 C-11.33 7.99 -11.66 8.98 -12 10 C-17.31618644 12.38311806 -23.23826782 13.37372476 -29 14 C-28.67 13.34 -28.34 12.68 -28 12 C-24.9375 11.375 -24.9375 11.375 -22 11 C-22 10.34 -22 9.68 -22 9 C-18.90034597 7.4905412 -15.79458597 5.99409333 -12.6875 4.5 C-11.36588867 3.85611328 -11.36588867 3.85611328 -10.01757812 3.19921875 C-9.17001953 2.79316406 -8.32246094 2.38710937 -7.44921875 1.96875 C-6.27879028 1.40317383 -6.27879028 1.40317383 -5.0847168 0.82617188 C-3 0 -3 0 0 0 Z " fill="#DD5B5A" transform="translate(136,8)"/>
<path d="M0 0 C2.475 0.495 2.475 0.495 5 1 C6.4845688 5.04650179 7.3006009 8.62422216 7.5625 12.921875 C7.63726562 14.03046875 7.71203125 15.1390625 7.7890625 16.28125 C7.85867187 17.4259375 7.92828125 18.570625 8 19.75 C8.48747737 27.65796619 9.19437022 35.27348227 11 43 C11.79470703 43.04487549 12.58941406 43.08975098 13.40820312 43.13598633 C50.59459459 45.2972973 50.59459459 45.2972973 58 49 C58 49.66 58 50.32 58 51 C59.65 51 61.3 51 63 51 C63 51.33 63 51.66 63 52 C60.74956078 51.88317392 58.4996584 51.7560042 56.25 51.625 C54.99703125 51.55539063 53.7440625 51.48578125 52.453125 51.4140625 C48.0118112 51.07013274 43.6648387 50.31726509 39.27832031 49.55712891 C33.45035768 48.56670511 27.5987625 47.73231046 21.75 46.875 C20.51636719 46.69324219 19.28273437 46.51148438 18.01171875 46.32421875 C15.00795925 45.88180456 12.00405316 45.44041496 9 45 C7.7946931 39.22359594 6.72444429 33.48523688 6 27.625 C5.39751374 22.8911794 4.71099415 18.19805164 3.875 13.5 C3.13887613 9.24428387 2.80404463 5.31101822 3 1 C2.01 0.67 1.02 0.34 0 0 Z " fill="#DEBA4D" transform="translate(136,92)"/>
<path d="M0 0 C4.97870664 4.19697921 9.77920252 8.51264966 14.4375 13.0625 C15.07365234 13.66126953 15.70980469 14.26003906 16.36523438 14.87695312 C20.81822198 19.24384644 20.81822198 19.24384644 21.66015625 22.74609375 C20.80613275 25.6619018 19.38907577 26.22090102 17 28 C16.47983904 30.43832838 16.47983904 30.43832838 16.6875 33.0625 C16.71199219 33.94035156 16.73648438 34.81820312 16.76171875 35.72265625 C16.86811224 38.02931501 16.86811224 38.02931501 18 40 C18.07092842 42.2072923 18.08415025 44.41667452 18.0625 46.625 C18.05347656 47.81351563 18.04445313 49.00203125 18.03515625 50.2265625 C18.02355469 51.14179688 18.01195313 52.05703125 18 53 C17.34 53 16.68 53 16 53 C15.01930649 48.80110836 14.08958477 44.64948959 13.5 40.375 C13.06767676 36.92289598 13.06767676 36.92289598 11.9375 33.375 C11.10072596 30.36261345 10.81257606 28.09249501 11 25 C11.99 24.67 12.98 24.34 14 24 C14 23.34 14 22.68 14 22 C14.66 22 15.32 22 16 22 C16 21.34 16 20.68 16 20 C15.34 20 14.68 20 14 20 C13.67 18.68 13.34 17.36 13 16 C10.03 15.505 10.03 15.505 7 15 C7 14.34 7 13.68 7 13 C7.66 13 8.32 13 9 13 C8.28436734 10.9837767 8.28436734 10.9837767 7 9 C6.360625 8.87625 5.72125 8.7525 5.0625 8.625 C3 8 3 8 1.25 5.0625 C0 2 0 2 0 0 Z " fill="#448CAE" transform="translate(91,120)"/>
<path d="M0 0 C-0.125 2.3125 -0.125 2.3125 -1 5 C-4.20733304 7.02201431 -6.19154436 8 -10 8 C-10.3528562 17.56531832 -9.33659976 26.42394453 -7.5625 35.8125 C-7.10390331 38.31872447 -6.64682864 40.82522801 -6.19140625 43.33203125 C-5.98016113 44.48654785 -5.76891602 45.64106445 -5.55126953 46.83056641 C-4.90485889 50.54699818 -4.40925836 54.25081709 -4 58 C0.35372252 58.81489186 4.70805337 59.62648711 9.0625 60.4375 C10.29162109 60.66759766 11.52074219 60.89769531 12.78710938 61.13476562 C13.98271484 61.35712891 15.17832031 61.57949219 16.41015625 61.80859375 C17.50465088 62.01282959 18.59914551 62.21706543 19.72680664 62.42749023 C23.14290626 63.02499554 26.56468919 63.52662291 30 64 C30 64.66 30 65.32 30 66 C21.65005939 65.43902934 13.4913331 64.37718967 5.25 62.9375 C4.15945312 62.75123047 3.06890625 62.56496094 1.9453125 62.37304688 C-0.70393786 61.91988563 -3.35230703 61.46215796 -6 61 C-6.98140317 54.75654143 -7.95965643 48.51259499 -8.93579102 42.26831055 C-9.26775945 40.14710495 -9.60043093 38.02600926 -9.93383789 35.9050293 C-10.41480437 32.84452957 -10.89318465 29.78363471 -11.37109375 26.72265625 C-11.51904892 25.78478775 -11.66700409 24.84691925 -11.81944275 23.88063049 C-12.69339543 18.26357507 -13.41210929 12.654348 -14 7 C-8.25 4 -8.25 4 -6 4 C-6 3.34 -6 2.68 -6 2 C-2.25 0 -2.25 0 0 0 Z " fill="#5090A6" transform="translate(48,128)"/>
<path d="M0 0 C0.66 0.33 1.32 0.66 2 1 C-2.49257567 6.61571959 -8.39487624 8.5243954 -15 11 C-14.71953571 14.35520059 -14.42359578 17.70886828 -14.125 21.0625 C-14.04636719 22.00544922 -13.96773438 22.94839844 -13.88671875 23.91992188 C-13.4093692 29.18912651 -12.65958978 33.9724192 -11 39 C-10.34 39 -9.68 39 -9 39 C-9.33 39.99 -9.66 40.98 -10 42 C-14.82467168 38.38149624 -15.24751928 33.92064009 -16.25 28.3125 C-16.42273438 27.45205078 -16.59546875 26.59160156 -16.7734375 25.70507812 C-17.84738213 20.04982207 -18.16320108 14.75283799 -18 9 C-17.40832031 8.74605469 -16.81664063 8.49210937 -16.20703125 8.23046875 C-11.95603527 6.37889301 -7.93343762 4.4724465 -4 2 C-1.8125 0.75 -1.8125 0.75 0 0 Z " fill="#CD6B6D" transform="translate(105,22)"/>
<path d="M0 0 C0.33 0 0.66 0 1 0 C0.70302239 6.68199612 -2.19471127 14.19471127 -7 19 C-8.8125 19.1328125 -8.8125 19.1328125 -11 19.125 C-11.721875 19.12757813 -12.44375 19.13015625 -13.1875 19.1328125 C-15 19 -15 19 -16 18 C-18.18292774 17.76518307 -20.37203174 17.58636677 -22.5625 17.4375 C-23.76003906 17.35371094 -24.95757812 17.26992187 -26.19140625 17.18359375 C-27.58166016 17.09271484 -27.58166016 17.09271484 -29 17 C-29.33 17.66 -29.66 18.32 -30 19 C-31.70884005 17.37660195 -33.37446717 15.70680947 -35 14 C-35 13.34 -35 12.68 -35 12 C-34.30777344 12.13277344 -33.61554688 12.26554688 -32.90234375 12.40234375 C-24.59671321 13.90151553 -16.41703145 14.56305028 -8 15 C-5.38464946 10.41814543 -2.85698949 5.95197197 -1 1 C-0.67 0.67 -0.34 0.34 0 0 Z " fill="#FBF7D0" transform="translate(207,128)"/>
<path d="M0 0 C0.33 0 0.66 0 1 0 C1.06058594 0.84304687 1.12117188 1.68609375 1.18359375 2.5546875 C1.26738281 3.65039062 1.35117187 4.74609375 1.4375 5.875 C1.51871094 6.96554688 1.59992187 8.05609375 1.68359375 9.1796875 C1.83001703 11.94728971 1.83001703 11.94728971 3 14 C3.06950541 15.54023996 3.08452357 17.08334988 3.0625 18.625 C3.05347656 19.44226563 3.04445313 20.25953125 3.03515625 21.1015625 C3.02355469 21.72804688 3.01195312 22.35453125 3 23 C3.66 23 4.32 23 5 23 C5 26.96 5 30.92 5 35 C6.69769531 34.95166016 6.69769531 34.95166016 8.4296875 34.90234375 C13.90723396 34.90113777 19.10832646 35.97074851 24.46484375 37.02148438 C28.9490265 37.84269331 32.48247695 38.08969007 37 37 C37 37.99 37 38.98 37 40 C32.8047146 40.86766923 29.48381146 40.9923694 25.26953125 40.2578125 C24.21958984 40.07863281 23.16964844 39.89945313 22.08789062 39.71484375 C21.00701172 39.52019531 19.92613281 39.32554688 18.8125 39.125 C17.1737793 38.84462891 17.1737793 38.84462891 15.50195312 38.55859375 C7.50983349 37.1699445 7.50983349 37.1699445 4 36 C1.98553868 29.76096693 1.22852955 23.29671177 0.375 16.8125 C0.2409375 15.84119141 0.106875 14.86988281 -0.03125 13.86914062 C-1.18777575 5.26010455 -1.18777575 5.26010455 -1 1 C-0.67 0.67 -0.34 0.34 0 0 Z " fill="#72AF84" transform="translate(27,82)"/>
<path d="M0 0 C3.95677402 1.67401978 6.84464213 4.13149285 10 7 C10 7.66 10 8.32 10 9 C10.64453125 9.22429687 11.2890625 9.44859375 11.953125 9.6796875 C14 11 14 11 14.609375 13.3828125 C14.65578125 14.28773437 14.7021875 15.19265625 14.75 16.125 C14.80671875 17.03507812 14.8634375 17.94515625 14.921875 18.8828125 C14.96054688 19.93082031 14.96054688 19.93082031 15 21 C19.70055274 22.77858752 24.3680366 23.64378089 29.296875 24.4921875 C32.61893661 25.11627422 35.77460197 25.99654284 39 27 C35.35913549 28.2433165 32.46863867 27.80879753 28.703125 27.22265625 C27.49785156 27.03896484 26.29257813 26.85527344 25.05078125 26.66601562 C23.79652344 26.46685547 22.54226562 26.26769531 21.25 26.0625 C19.98027344 25.86720703 18.71054688 25.67191406 17.40234375 25.47070312 C14.26707764 24.98744782 11.1331191 24.49695348 8 24 C8.66 23.67 9.32 23.34 10 23 C11.47686087 19.56359691 11.70924322 16.66122852 11 13 C8.66569664 9.34307073 5.54014216 6.37741907 2.44140625 3.37109375 C1.63574219 2.58863281 0.83007812 1.80617188 0 1 C0 0.67 0 0.34 0 0 Z " fill="#C07167" transform="translate(96,64)"/>
<path d="M0 0 C0.33 1.32 0.66 2.64 1 4 C0.34644531 4.39058594 -0.30710937 4.78117188 -0.98046875 5.18359375 C-3.22453113 6.82698218 -3.22453113 6.82698218 -3.42578125 9.41015625 C-3.38839844 10.28542969 -3.35101563 11.16070312 -3.3125 12.0625 C-3.28800781 12.94035156 -3.26351562 13.81820312 -3.23828125 14.72265625 C-3.13188776 17.02931501 -3.13188776 17.02931501 -2 19 C-1.92907158 21.2072923 -1.91584975 23.41667452 -1.9375 25.625 C-1.94652344 26.81351563 -1.95554687 28.00203125 -1.96484375 29.2265625 C-1.97644531 30.14179688 -1.98804687 31.05703125 -2 32 C-2.66 32 -3.32 32 -4 32 C-6.21033789 22.5363203 -7.14380757 13.73097885 -7 4 C-4.35261084 2.5393715 -3.10551666 2 0 2 C0 1.34 0 0.68 0 0 Z " fill="#5578AB" transform="translate(111,141)"/>
<path d="M0 0 C0.8353125 1.0828125 0.8353125 1.0828125 1.6875 2.1875 C3.9851858 4.98198272 6.41162713 7.47475818 9 10 C17.83041266 18.61503674 17.83041266 18.61503674 18.375 23.0625 C18.01777222 25.86078426 17.46607416 27.61762948 16 30 C15.34 30 14.68 30 14 30 C13.34 31.32 12.68 32.64 12 34 C12.50712033 30.28111761 13.11608215 27.26545761 15 24 C15.66 24 16.32 24 17 24 C15.97132011 21.28802573 15.32773914 20.1820773 12.75 18.75 C9.38274929 16.6072041 7.67183744 14.0939911 5.4296875 10.83984375 C2.78738881 7.43950854 0.07834756 6.66135366 -4 6 C-2.25 1.125 -2.25 1.125 0 0 Z " fill="#7F9868" transform="translate(90,57)"/>
<path d="M0 0 C0.33 0.99 0.66 1.98 1 3 C1.66386719 2.855625 2.32773438 2.71125 3.01171875 2.5625 C3.89472656 2.376875 4.77773437 2.19125 5.6875 2 C6.55761719 1.814375 7.42773438 1.62875 8.32421875 1.4375 C10.93712964 1.01027953 13.35813038 0.92383799 16 1 C13.57768244 2.21417912 11.15138545 3.41975571 8.72265625 4.62109375 C7.50258063 5.22651506 6.28252914 5.83198501 5.0625 6.4375 C4.45470703 6.73720703 3.84691406 7.03691406 3.22070312 7.34570312 C0.47152739 8.71287682 -2.1961282 10.11996191 -4.81640625 11.72265625 C-7 13 -7 13 -9 13 C-7.68938409 8.76570244 -6.05643741 4.92592596 -4 1 C-3.01 1 -2.02 1 -1 1 C-0.67 0.67 -0.34 0.34 0 0 Z " fill="#FBF8E4" transform="translate(170,57)"/>
<path d="M0 0 C4.46287145 3.18776532 7.17551105 6.32872982 10 11 C7.5625 10.1875 7.5625 10.1875 5 9 C4.67 8.01 4.34 7.02 4 6 C1.49552484 4.78130071 1.49552484 4.78130071 -1 4 C-1 3.34 -1 2.68 -1 2 C-5.70284935 3.67389553 -9.72761804 5.4140846 -14 8 C-15.0725 8.350625 -16.145 8.70125 -17.25 9.0625 C-20.13618706 9.68714055 -20.13618706 9.68714055 -21 12 C-22.65 12 -24.3 12 -26 12 C-25.34 11.67 -24.68 11.34 -24 11 C-24 10.34 -24 9.68 -24 9 C-7.17266392 -3.29554829 -7.17266392 -3.29554829 0 0 Z " fill="#DDC356" transform="translate(187,60)"/>
<path d="M0 0 C2.97 0.495 2.97 0.495 6 1 C6.19392201 6.52677733 5.7479503 10.75614911 4 16 C3.34 16 2.68 16 2 16 C1.87367188 16.5671875 1.74734375 17.134375 1.6171875 17.71875 C0.18185298 23.0240371 -2.16481916 28.99049276 -6 33 C-6.66 33 -7.32 33 -8 33 C-6.63700001 28.66970338 -4.98578832 24.61084526 -3.0625 20.5 C-2.55847656 19.4171875 -2.05445313 18.334375 -1.53515625 17.21875 C-0.49860949 15.04543059 0.58231273 12.89280446 1.703125 10.76171875 C3.21115144 7.5503492 3.15983484 6.30106838 2 3 C1.34 2.01 0.68 1.02 0 0 Z " fill="#FDFAD9" transform="translate(218,91)"/>
<path d="M0 0 C2.475 0.495 2.475 0.495 5 1 C6.4845688 5.04650179 7.3006009 8.62422216 7.5625 12.921875 C7.63726562 14.03046875 7.71203125 15.1390625 7.7890625 16.28125 C7.85867187 17.4259375 7.92828125 18.570625 8 19.75 C8.48883501 27.67999023 9.25623497 35.2402456 11 43 C13.97 43.66 16.94 44.32 20 45 C15.80104745 46.04973814 13.20594226 45.72795155 9 45 C7.44311256 37.96088126 6.41773736 30.90722208 5.5078125 23.7578125 C5.04310187 20.31895382 4.48284944 16.91594261 3.875 13.5 C3.13887613 9.24428387 2.80404463 5.31101822 3 1 C2.01 0.67 1.02 0.34 0 0 Z " fill="#D8B45A" transform="translate(136,92)"/>
<path d="M0 0 C0.33 0 0.66 0 1 0 C1.23256648 3.87154793 0.68987016 6.21213096 -1.125 9.625 C-1.79982422 10.90890625 -1.79982422 10.90890625 -2.48828125 12.21875 C-2.98714844 13.1365625 -3.48601562 14.054375 -4 15 C-4.55042969 16.0209375 -5.10085937 17.041875 -5.66796875 18.09375 C-7.1011014 20.73534367 -8.54517102 23.37030913 -10 26 C-11.72945653 25.85764543 -13.45855654 25.71095618 -15.1875 25.5625 C-16.63189453 25.44068359 -16.63189453 25.44068359 -18.10546875 25.31640625 C-20.78649602 25.02333849 -23.3662986 24.57296246 -26 24 C-25.34 23.34 -24.68 22.68 -24 22 C-22.171875 22.37109375 -22.171875 22.37109375 -20 23 C-18.41788427 23.06548492 -16.83329919 23.08578381 -15.25 23.0625 C-14.05117187 23.04896484 -14.05117187 23.04896484 -12.828125 23.03515625 C-12.22484375 23.02355469 -11.6215625 23.01195312 -11 23 C-10.525625 21.865625 -10.05125 20.73125 -9.5625 19.5625 C-8 16 -8 16 -7 15 C-6.63239269 12.67182036 -6.29758419 10.3381615 -6 8 C-5.01 7.67 -4.02 7.34 -3 7 C-1.84164327 4.02496878 -1.84164327 4.02496878 -1 1 C-0.67 0.67 -0.34 0.34 0 0 Z " fill="#4990AA" transform="translate(106,171)"/>
<path d="M0 0 C0.66 0 1.32 0 2 0 C1.44380331 4.6889493 0.11817327 8.19924267 -2.0625 12.375 C-2.61035156 13.43460938 -3.15820312 14.49421875 -3.72265625 15.5859375 C-4.14417969 16.38257812 -4.56570312 17.17921875 -5 18 C-5.66 18 -6.32 18 -7 18 C-7.09152344 18.67417969 -7.18304688 19.34835938 -7.27734375 20.04296875 C-8.18352775 23.75097572 -9.81283099 26.94828493 -11.5625 30.3125 C-11.89185547 30.95767578 -12.22121094 31.60285156 -12.56054688 32.26757812 C-13.36824255 33.84785228 -14.18337613 35.42432105 -15 37 C-16 35 -16 35 -14.92578125 31.515625 C-14.39611031 30.09071677 -13.85795337 28.66894165 -13.3125 27.25 C-13.05533203 26.54617187 -12.79816406 25.84234375 -12.53320312 25.1171875 C-10.84050137 20.64213324 -8.74320044 16.95020863 -6 13 C-5.67 12.01 -5.34 11.02 -5 10 C-4.01 10 -3.02 10 -2 10 C-1.93941406 9.36191406 -1.87882813 8.72382812 -1.81640625 8.06640625 C-1.73261719 7.24011719 -1.64882812 6.41382812 -1.5625 5.5625 C-1.48128906 4.73878906 -1.40007812 3.91507812 -1.31640625 3.06640625 C-1 1 -1 1 0 0 Z " fill="#DEC257" transform="translate(215,106)"/>
<path d="M0 0 C-0.1875 1.875 -0.1875 1.875 -1 4 C-3.5 5.125 -3.5 5.125 -6 6 C-6.33 6.66 -6.66 7.32 -7 8 C-9.64 8 -12.28 8 -15 8 C-15.33 14.27 -15.66 20.54 -16 27 C-16.33 27 -16.66 27 -17 27 C-17.3396019 25.12612523 -17.67138691 23.25083303 -18 21.375 C-18.185625 20.33085938 -18.37125 19.28671875 -18.5625 18.2109375 C-18.98715797 15.09425135 -19.07545206 12.14069188 -19 9 C-18.01 9 -17.02 9 -16 9 C-16 8.34 -16 7.68 -16 7 C-13.71070947 5.82845707 -11.41881638 4.66261926 -9.125 3.5 C-8.47402344 3.16613281 -7.82304688 2.83226562 -7.15234375 2.48828125 C-2.2265625 0 -2.2265625 0 0 0 Z " fill="#80BB91" transform="translate(42,55)"/>
<path d="M0 0 C0.99 0.66 1.98 1.32 3 2 C2.34 2 1.68 2 1 2 C1.103125 2.66 1.20625 3.32 1.3125 4 C0.92174834 7.75121597 -0.55704659 9.65981485 -2.6328125 12.73828125 C-4.57714454 15.95476196 -5.77008854 19.36051858 -7.0078125 22.8984375 C-8 25 -8 25 -11 27 C-13.04296875 27.1953125 -13.04296875 27.1953125 -15.1875 27.125 C-16.445625 27.08375 -17.70375 27.0425 -19 27 C-19 26.01 -19 25.02 -19 24 C-16.36 24.33 -13.72 24.66 -11 25 C-10.87165771 24.41661865 -10.74331543 23.8332373 -10.61108398 23.23217773 C-10.01638627 21.05985606 -9.24933935 19.28401985 -8.22265625 17.28515625 C-7.87396484 16.59873047 -7.52527344 15.91230469 -7.16601562 15.20507812 C-6.80185547 14.49802734 -6.43769531 13.79097656 -6.0625 13.0625 C-3.86065866 8.76516744 -1.69347719 4.53071646 0 0 Z " fill="#F2A845" transform="translate(160,69)"/>
<path d="M0 0 C-2.64 0.99 -5.28 1.98 -8 3 C-8.19854994 9.05577319 -7.63190212 14.40298941 -6.4453125 20.3359375 C-5.84070582 23.95297043 -5.86194006 27.3414117 -6 31 C-6.66 30.67 -7.32 30.34 -8 30 C-8 29.34 -8 28.68 -8 28 C-8.99 27.67 -9.98 27.34 -11 27 C-10.34 26.67 -9.68 26.34 -9 26 C-9.33 25.01 -9.66 24.02 -10 23 C-10.09317856 21.31188574 -10.13069271 19.62037006 -10.1328125 17.9296875 C-10.13410156 16.95128906 -10.13539062 15.97289063 -10.13671875 14.96484375 C-10.13285156 13.94519531 -10.12898438 12.92554688 -10.125 11.875 C-10.12886719 10.84761719 -10.13273437 9.82023437 -10.13671875 8.76171875 C-10.13542969 7.78589844 -10.13414063 6.81007813 -10.1328125 5.8046875 C-10.13168457 4.90733887 -10.13055664 4.00999023 -10.12939453 3.08544922 C-10 1 -10 1 -9 0 C-2.4 -1.2 -2.4 -1.2 0 0 Z " fill="#F8DAD7" transform="translate(96,28)"/>
<path d="M0 0 C0 0.66 0 1.32 0 2 C2.97 2.495 2.97 2.495 6 3 C5.67 5.31 5.34 7.62 5 10 C4.38125 9.21625 3.7625 8.4325 3.125 7.625 C1.10141339 5.03162353 1.10141339 5.03162353 -1 3 C-7.43181807 3.25222816 -12.43315693 5.43315693 -17 10 C-18.32 10 -19.64 10 -21 10 C-21 9.34 -21 8.68 -21 8 C-19.68 8 -18.36 8 -17 8 C-17 7.01 -17 6.02 -17 5 C-11.40390209 2.06871062 -6.4255651 -0.37797442 0 0 Z " fill="#4BAD84" transform="translate(85,109)"/>
<path d="M0 0 C2.42380927 1.37752284 3.97497498 3.02206858 6 5 C6 5.66 6 6.32 6 7 C1.125 6.125 1.125 6.125 0 5 C-2.16883817 5.03789637 -4.33656024 5.15494515 -6.5 5.3125 C-7.6859375 5.39113281 -8.871875 5.46976563 -10.09375 5.55078125 C-11.0528125 5.69902344 -12.011875 5.84726562 -13 6 C-13.33 6.66 -13.66 7.32 -14 8 C-14.66 7.34 -15.32 6.68 -16 6 C-14.27843904 4.98696238 -12.54738194 3.99005152 -10.8125 3 C-9.84957031 2.443125 -8.88664062 1.88625 -7.89453125 1.3125 C-4.89014367 -0.0498134 -3.2427775 -0.46479811 0 0 Z " fill="#71B185" transform="translate(72,41)"/>
<path d="M0 0 C1.32 0.99 2.64 1.98 4 3 C3.07234338 8.61138869 0.66452232 13.14802299 -1.875 18.1875 C-2.32230469 19.10208984 -2.76960937 20.01667969 -3.23046875 20.95898438 C-3.66746094 21.83232422 -4.10445312 22.70566406 -4.5546875 23.60546875 C-5.14999268 24.79885864 -5.14999268 24.79885864 -5.75732422 26.01635742 C-7 28 -7 28 -10 30 C-10 28.35 -10 26.7 -10 25 C-9.34 24.67 -8.68 24.34 -8 24 C-7.34786708 21.97536745 -7.34786708 21.97536745 -7 20 C-6.34 20 -5.68 20 -5 20 C-4.67 17.36 -4.34 14.72 -4 12 C-2.68 11.67 -1.36 11.34 0 11 C1.02703748 5.44506076 1.02703748 5.44506076 0 0 Z " fill="#846290" transform="translate(186,156)"/>
<path d="M0 0 C3.35369486 0.59887408 5.46118772 1.72382347 8 4 C8.33 4.99 8.66 5.98 9 7 C10.32796291 7.35412344 11.66216607 7.68521554 13 8 C14.75 9.5625 14.75 9.5625 16 11 C16 10.01 16 9.02 16 8 C17.32 8 18.64 8 20 8 C19.39676766 11.37810112 18.09807945 13.32255812 16 16 C3.13835377 4.70753065 3.13835377 4.70753065 0 0 Z " fill="#FDFCEA" transform="translate(186,59)"/>
<path d="M0 0 C3.33333333 3.33333333 6.66666667 6.66666667 10 10 C11.423125 11.2065625 11.423125 11.2065625 12.875 12.4375 C15 15 15 15 15 18 C13.99472229 21.01583314 12.83136284 23.4055693 11 26 C10.67 26 10.34 26 10 26 C10 23.69 10 21.38 10 19 C10.99 19 11.98 19 13 19 C11.00466682 14.37922842 8.98518672 12.01581698 5 9 C5 8.34 5 7.68 5 7 C3.68 6.67 2.36 6.34 1 6 C0.67 4.02 0.34 2.04 0 0 Z " fill="#D9C355" transform="translate(207,80)"/>
<path d="M0 0 C0 3 0 3 -1.375 5 C-6.91953949 9.22441104 -14.19209017 10.2600098 -21 11 C-20.67 10.34 -20.34 9.68 -20 9 C-16.9375 8.375 -16.9375 8.375 -14 8 C-14 7.34 -14 6.68 -14 6 C-12.04414675 4.99515796 -10.08523763 3.99626195 -8.125 3 C-7.03445312 2.443125 -5.94390625 1.88625 -4.8203125 1.3125 C-2 0 -2 0 0 0 Z " fill="#D27676" transform="translate(128,11)"/>
<path d="M0 0 C0.33 0 0.66 0 1 0 C1.68276334 3.60130422 2.3431332 7.20639004 3 10.8125 C3.19078125 11.81732422 3.3815625 12.82214844 3.578125 13.85742188 C4.80038032 20.6453041 5.24504026 27.10739196 5 34 C4.67 34 4.34 34 4 34 C3.87882813 33.3709375 3.75765625 32.741875 3.6328125 32.09375 C3.46523437 31.2378125 3.29765625 30.381875 3.125 29.5 C2.94453125 28.57445313 2.7640625 27.64890625 2.578125 26.6953125 C2.0035075 23.82026654 2.0035075 23.82026654 0.875 20.375 C-0.85935955 13.84405234 -0.14629773 6.69718484 0 0 Z " fill="#FAF0C3" transform="translate(138,93)"/>
<path d="M0 0 C0.66 0.66 1.32 1.32 2 2 C1.8198046 5.24351713 1.010675 6.98417155 -0.8125 9.6875 C-3.58842257 13.89103989 -5.25214325 18.29566215 -7 23 C-7.33 23 -7.66 23 -8 23 C-8 20.36 -8 17.72 -8 15 C-7.34 14.67 -6.68 14.34 -6 14 C-5.21984379 12.17489003 -4.52204594 10.31393324 -3.875 8.4375 C-3.52179688 7.42558594 -3.16859375 6.41367188 -2.8046875 5.37109375 C-2.40636719 4.19740234 -2.40636719 4.19740234 -2 3 C-1.34 3 -0.68 3 0 3 C0 2.01 0 1.02 0 0 Z " fill="#6BAF81" transform="translate(100,89)"/>
<path d="M0 0 C2.64 0 5.28 0 8 0 C8 0.33 8 0.66 8 1 C6.8553125 1.0928125 6.8553125 1.0928125 5.6875 1.1875 C2.85747427 1.75731402 2.85747427 1.75731402 1.375 4.125 C0.35281944 6.26228663 -0.59415323 8.4358703 -1.5 10.625 C-2.81287376 13.57896597 -3.63572203 14.95812357 -6 17 C-6.33 17.66 -6.66 18.32 -7 19 C-7.66 18.67 -8.32 18.34 -9 18 C-7.31621564 13.83062919 -5.69466993 10.59289324 -3 7 C-1.90382201 4.69752569 -0.95574099 2.36659675 0 0 Z " fill="#ECFCF1" transform="translate(104,88)"/>
<path d="M0 0 C5.92655809 -0.22794454 11.25763232 0.48066014 17.0703125 1.66015625 C20.26993919 2.03131295 22.86216143 1.6657432 26 1 C26 1.99 26 2.98 26 4 C20.59804792 5.29821106 16.11804713 4.64422453 10.75 3.6875 C9.52796875 3.49124023 9.52796875 3.49124023 8.28125 3.29101562 C2.25906906 2.25906906 2.25906906 2.25906906 0 0 Z " fill="#63A978" transform="translate(38,118)"/>
<path d="M0 0 C0.99 0.495 0.99 0.495 2 1 C2.6328125 3.72265625 2.6328125 3.72265625 3.125 7.0625 C3.29257813 8.16722656 3.46015625 9.27195313 3.6328125 10.41015625 C3.75398438 11.26480469 3.87515625 12.11945313 4 13 C6.97 13.33 9.94 13.66 13 14 C8.01222852 16.49388574 6.33016752 15.88836125 1 15 C0.67 10.05 0.34 5.1 0 0 Z " fill="#91709D" transform="translate(111,185)"/>
<path d="M0 0 C2.97 0.495 2.97 0.495 6 1 C6.30109336 9.88225399 6.30109336 9.88225399 4 14 C3.01 14.66 2.02 15.32 1 16 C-0.19232613 18.05003955 -0.19232613 18.05003955 -1 20 C-1.33 19.34 -1.66 18.68 -2 18 C-0.80933582 15.45179825 0.57836977 13.04972761 1.96875 10.60546875 C3.19179706 7.51542183 3.03196481 6.12169357 2 3 C1.34 2.01 0.68 1.02 0 0 Z " fill="#F5ECBB" transform="translate(218,91)"/>
<path d="M0 0 C0.99 0.33 1.98 0.66 3 1 C2.34644531 1.39058594 1.69289063 1.78117188 1.01953125 2.18359375 C-1.22453113 3.82698218 -1.22453113 3.82698218 -1.42578125 6.41015625 C-1.38839844 7.28542969 -1.35101563 8.16070312 -1.3125 9.0625 C-1.28800781 9.94035156 -1.26351562 10.81820312 -1.23828125 11.72265625 C-1.13188776 14.02931501 -1.13188776 14.02931501 0 16 C0.07092842 18.2072923 0.08415025 20.41667452 0.0625 22.625 C0.05347656 23.81351563 0.04445313 25.00203125 0.03515625 26.2265625 C0.02355469 27.14179688 0.01195313 28.05703125 0 29 C-0.33 29 -0.66 29 -1 29 C-2.4704636 22.684884 -3.23050992 16.48431138 -3.3125 10 C-3.32925781 8.741875 -3.34601563 7.48375 -3.36328125 6.1875 C-3 3 -3 3 -1.48046875 1.0625 C-0.99191406 0.711875 -0.50335938 0.36125 0 0 Z " fill="#6D6CA7" transform="translate(109,144)"/>
<path d="M0 0 C2.3125 2.5625 2.3125 2.5625 4 5 C3.443125 4.690625 2.88625 4.38125 2.3125 4.0625 C-2.27584342 1.95434221 -6.10832502 1.58684945 -11 3 C-12.43637698 4.95163118 -12.43637698 4.95163118 -13 7 C-14.32 6.67 -15.64 6.34 -17 6 C-12.06718789 1.53697952 -6.94836691 -2.74277641 0 0 Z " fill="#3C9A95" transform="translate(85,112)"/>
<path d="M0 0 C5.48949479 3.58497619 10.2501622 7.55190739 14 13 C14 13.99 14 14.98 14 16 C13.34 15.67 12.68 15.34 12 15 C12 14.34 12 13.68 12 13 C11.34 13 10.68 13 10 13 C7.875 11.1875 7.875 11.1875 6 9 C6 8.01 6 7.02 6 6 C4.35 6 2.7 6 1 6 C-0.0625 4.125 -0.0625 4.125 -1 2 C-0.67 1.34 -0.34 0.68 0 0 Z " fill="#CA6566" transform="translate(143,17)"/>
<path d="M0 0 C0 0.66 0 1.32 0 2 C-5.75 5 -5.75 5 -8 5 C-8 6.65 -8 8.3 -8 10 C-8.66 10 -9.32 10 -10 10 C-10.29296875 3.9453125 -10.29296875 3.9453125 -10 2 C-6.3558226 -0.4294516 -4.28758728 -0.16179575 0 0 Z " fill="#DCF2F5" transform="translate(42,130)"/>
<path d="M0 0 C0.66 0 1.32 0 2 0 C0.16508812 4.74018901 -1.91941459 9.36413251 -4 14 C-6.97 13.67 -9.94 13.34 -13 13 C-13 12.67 -13 12.34 -13 12 C-11.906875 11.938125 -10.81375 11.87625 -9.6875 11.8125 C-5.92453591 11.38647328 -5.92453591 11.38647328 -4.1875 8.75 C-3.07878337 6.18244571 -2.01362978 3.60647659 -1 1 C-0.67 0.67 -0.34 0.34 0 0 Z " fill="#D56D3B" transform="translate(153,80)"/>
<path d="M0 0 C0.33 0 0.66 0 1 0 C1.06058594 0.62648437 1.12117188 1.25296875 1.18359375 1.8984375 C1.26738281 2.71570313 1.35117188 3.53296875 1.4375 4.375 C1.51871094 5.18710938 1.59992188 5.99921875 1.68359375 6.8359375 C1.89090114 9.04272805 1.89090114 9.04272805 3 11 C3.07092842 13.2072923 3.08415025 15.41667452 3.0625 17.625 C3.05347656 18.81351563 3.04445313 20.00203125 3.03515625 21.2265625 C3.02355469 22.14179688 3.01195313 23.05703125 3 24 C2.34 23.67 1.68 23.34 1 23 C-0.22017833 18.07324223 -0.11800815 13.16343228 -0.0625 8.125 C-0.05798828 7.34125 -0.05347656 6.5575 -0.04882812 5.75 C-0.03714093 3.83329986 -0.01920908 1.91663952 0 0 Z " fill="#846199" transform="translate(109,161)"/>
<path d="M0 0 C0.66 0 1.32 0 2 0 C2.36463732 1.74784829 2.7163078 3.49840502 3.0625 5.25 C3.25972656 6.22453125 3.45695312 7.1990625 3.66015625 8.203125 C3.98397535 10.868119 3.85503199 12.48871723 3 15 C2.54625 14.030625 2.0925 13.06125 1.625 12.0625 C0.34213779 8.92920418 0.34213779 8.92920418 -2 8 C-1.47731534 5.23723823 -0.89130413 2.6739124 0 0 Z " fill="#ECDEEF" transform="translate(107,173)"/>
<path d="M0 0 C4.68876095 0.86828907 7.99649299 2.66199066 10.875 6.5 C12 9 12 9 11 12 C9.16364422 10.19047409 7.33083792 8.37759362 5.5 6.5625 C4.97535156 6.04623047 4.45070313 5.52996094 3.91015625 4.99804688 C2.58775448 3.68423213 1.29164432 2.34406495 0 1 C0 0.67 0 0.34 0 0 Z " fill="#DBF3F8" transform="translate(92,120)"/>
<path d="M0 0 C1.33332095 2.6666419 0.67102033 4.16680303 0 7 C1.98 6.67 3.96 6.34 6 6 C2.4912812 9.09592835 -0.49197399 10.74194623 -5 12 C-3.68938409 7.76570244 -2.05643741 3.92592596 0 0 Z " fill="#FAE2C7" transform="translate(166,58)"/>
<path d="M0 0 C0.66 0 1.32 0 2 0 C1.6079649 5.09645625 -0.26699394 8.55978442 -2.7890625 12.875 C-4.10075511 15.17680897 -5.11428963 17.50390715 -6 20 C-7.05543251 16.81230857 -6.97424908 15.05213369 -5.75 11.9375 C-5.37101563 10.93009766 -5.37101563 10.93009766 -4.984375 9.90234375 C-3.91930949 7.8440624 -2.63387504 6.62051912 -1 5 C-0.27802838 2.39388923 -0.27802838 2.39388923 0 0 Z " fill="#CA6D6D" transform="translate(170,44)"/>
<path d="M0 0 C-1.875 4.875 -1.875 4.875 -3 6 C-4.84891946 6.23363881 -6.70488031 6.41303635 -8.5625 6.5625 C-10.08037109 6.68818359 -10.08037109 6.68818359 -11.62890625 6.81640625 C-12.41136719 6.87699219 -13.19382813 6.93757813 -14 7 C-11.39593854 4.96229271 -8.83642657 3.28195311 -5.875 1.8125 C-5.19179688 1.46832031 -4.50859375 1.12414063 -3.8046875 0.76953125 C-2 0 -2 0 0 0 Z " fill="#71B486" transform="translate(56,48)"/>
<path d="M0 0 C1.79979135 3.24118268 2.70331265 6.40130954 3.5625 10 C3.81128906 11.03125 4.06007813 12.0625 4.31640625 13.125 C4.54199219 14.07375 4.76757812 15.0225 5 16 C5.33126815 17.33384793 5.66365264 18.66742379 6 20 C6.66 20 7.32 20 8 20 C7.67 20.99 7.34 21.98 7 23 C3.06725108 19.74166876 2.20220302 17.01924573 1.25 12.0625 C1.00765625 10.85722656 0.7653125 9.65195312 0.515625 8.41015625 C0.07963801 5.52669685 -0.11026056 2.90536575 0 0 Z " fill="#C46D64" transform="translate(88,41)"/>
<path d="M0 0 C1.66413655 3.3282731 0.81867406 6.99733973 0.5625 10.625 C0.51029297 11.42679688 0.45808594 12.22859375 0.40429688 13.0546875 C0.27451629 15.03679103 0.13790265 17.01844499 0 19 C-0.33 19 -0.66 19 -1 19 C-1.3396019 17.12612523 -1.67138691 15.25083303 -2 13.375 C-2.2784375 11.80878906 -2.2784375 11.80878906 -2.5625 10.2109375 C-2.98715797 7.09425135 -3.07545206 4.14069188 -3 1 C-2.01 0.67 -1.02 0.34 0 0 Z " fill="#6EAD84" transform="translate(26,63)"/>
<path d="M0 0 C6.5705166 -0.24794402 12.56971459 0.67611771 19 2 C19.33 2.99 19.66 3.98 20 5 C17.60293301 4.71657321 15.20768917 4.42356312 12.8125 4.125 C12.13896484 4.04636719 11.46542969 3.96773437 10.77148438 3.88671875 C6.89672516 3.39528587 3.54915277 2.64019099 0 1 C0 0.67 0 0.34 0 0 Z " fill="#95656D" transform="translate(152,138)"/>
<path d="M0 0 C4.88049925 3.9419417 9.0580583 8.11950075 13 13 C11.125 12.6875 11.125 12.6875 9 12 C8.34 11.01 7.68 10.02 7 9 C6.0409375 8.8453125 6.0409375 8.8453125 5.0625 8.6875 C3 8 3 8 1.25 5.0625 C0 2 0 2 0 0 Z " fill="#5190A6" transform="translate(91,120)"/>
<path d="M0 0 C4.63720719 3.27530896 8.68542782 6.30435607 12 11 C10.68 11.33 9.36 11.66 8 12 C7.59007812 11.43410156 7.18015625 10.86820313 6.7578125 10.28515625 C6.21898437 9.55167969 5.68015625 8.81820312 5.125 8.0625 C4.59132812 7.33160156 4.05765625 6.60070313 3.5078125 5.84765625 C2.11987896 3.88901765 2.11987896 3.88901765 0 3 C0 2.01 0 1.02 0 0 Z " fill="#CC6F6E" transform="translate(158,32)"/>
<path d="M0 0 C7.2715736 0.48477157 7.2715736 0.48477157 10.5625 2.8125 C12 5 12 5 11.58984375 7.13671875 C11.39519531 7.75160156 11.20054688 8.36648437 11 9 C10.54109375 8.57847656 10.0821875 8.15695313 9.609375 7.72265625 C8.99578125 7.17480469 8.3821875 6.62695312 7.75 6.0625 C7.14671875 5.51722656 6.5434375 4.97195312 5.921875 4.41015625 C3.91532695 2.93787201 2.42997551 2.42470811 0 2 C0 1.34 0 0.68 0 0 Z " fill="#E0F6E8" transform="translate(68,39)"/>
<path d="M0 0 C3.08404742 2.70794407 5.4422692 5.17647894 7 9 C6.34 9 5.68 9 5 9 C5 8.34 5 7.68 5 7 C4.39671875 6.80664062 3.7934375 6.61328125 3.171875 6.4140625 C2.37265625 6.15367188 1.5734375 5.89328125 0.75 5.625 C-0.03890625 5.36976562 -0.8278125 5.11453125 -1.640625 4.8515625 C-3.86627958 4.04826333 -5.90931672 3.10288338 -8 2 C-5.09399739 0.74335022 -3.20395416 0 0 0 Z " fill="#CC7876" transform="translate(136,8)"/>
<path d="M0 0 C2.64 0.33 5.28 0.66 8 1 C8 1.66 8 2.32 8 3 C9.32 3.33 10.64 3.66 12 4 C9.92446352 4.5534764 8.15634036 5 6 5 C5.67 5.66 5.34 6.32 5 7 C3.29115995 5.37660195 1.62553283 3.70680947 0 2 C0 1.34 0 0.68 0 0 Z " fill="#F5E9D0" transform="translate(172,140)"/>
<path d="M0 0 C0.33 0 0.66 0 1 0 C1.33 2.97 1.66 5.94 2 9 C2.66 9 3.32 9 4 9 C4 11.64 4 14.28 4 17 C3.34 16.67 2.68 16.34 2 16 C2 15.34 2 14.68 2 14 C1.01 13.67 0.02 13.34 -1 13 C-0.34 12.67 0.32 12.34 1 12 C0.67 11.01 0.34 10.02 0 9 C-0.06740865 7.43881572 -0.08514456 5.8749748 -0.0625 4.3125 C-0.05347656 3.50425781 -0.04445313 2.69601563 -0.03515625 1.86328125 C-0.02355469 1.24839844 -0.01195313 0.63351563 0 0 Z " fill="#F0E9DE" transform="translate(86,42)"/>
<path d="M0 0 C-2.28929053 1.17154293 -4.58118362 2.33738074 -6.875 3.5 C-7.52597656 3.83386719 -8.17695312 4.16773437 -8.84765625 4.51171875 C-13.7734375 7 -13.7734375 7 -16 7 C-15.67 6.01 -15.34 5.02 -15 4 C-13.68 4 -12.36 4 -11 4 C-10.67 3.01 -10.34 2.02 -10 1 C-6.19730268 -0.6900877 -3.94727832 -1.19873962 0 0 Z " fill="#E1F7FA" transform="translate(58,123)"/>
<path d="M0 0 C3.35369486 0.59887408 5.46118772 1.72382347 8 4 C8.33 4.99 8.66 5.98 9 7 C9.99 7.33 10.98 7.66 12 8 C12.33 9.65 12.66 11.3 13 13 C8.16371342 9.06348767 3.48834201 5.23251302 0 0 Z " fill="#F8F1BE" transform="translate(186,59)"/>
<path d="M0 0 C2.71595986 3.1540179 3.96846241 4.87384964 5 9 C2.03 8.01 -0.94 7.02 -4 6 C-2.25 1.125 -2.25 1.125 0 0 Z " fill="#78A270" transform="translate(90,57)"/>
<path d="M0 0 C0.66 0 1.32 0 2 0 C1.34 1.65 0.68 3.3 0 5 C-1.72945653 4.85764543 -3.45855654 4.71095618 -5.1875 4.5625 C-6.63189453 4.44068359 -6.63189453 4.44068359 -8.10546875 4.31640625 C-10.78649602 4.02333849 -13.3662986 3.57296246 -16 3 C-15.34 2.34 -14.68 1.68 -14 1 C-12.171875 1.37109375 -12.171875 1.37109375 -10 2 C-8.41788427 2.06548492 -6.83329919 2.08578381 -5.25 2.0625 C-4.05117187 2.04896484 -4.05117187 2.04896484 -2.828125 2.03515625 C-1.92320313 2.01775391 -1.92320313 2.01775391 -1 2 C-0.67 1.34 -0.34 0.68 0 0 Z " fill="#5F96AA" transform="translate(96,192)"/>
<path d="M0 0 C0.66 0.33 1.32 0.66 2 1 C0.7874262 4.72433382 -0.50859979 8.37802806 -2 12 C-2.66 11.67 -3.32 11.34 -4 11 C-3.67 8.69 -3.34 6.38 -3 4 C-2.34 4 -1.68 4 -1 4 C-0.67 2.68 -0.34 1.36 0 0 Z " fill="#DEF5EE" transform="translate(94,108)"/>
<path d="M0 0 C-2.52267991 1.68178661 -4.81091823 2.90106742 -7.5625 4.125 C-8.34753906 4.47820313 -9.13257812 4.83140625 -9.94140625 5.1953125 C-12 6 -12 6 -14 6 C-13.08486681 3.71216703 -12.34515354 2.26550272 -10.375 0.75 C-6.86146845 -0.35953628 -3.67700382 -0.12256679 0 0 Z " fill="#FDEEEB" transform="translate(136,7)"/>
<path d="M0 0 C0.99 0 1.98 0 3 0 C3.33 3.3 3.66 6.6 4 10 C6.31 10 8.62 10 11 10 C11 10.33 11 10.66 11 11 C9.72125 11.061875 8.4425 11.12375 7.125 11.1875 C6.40570313 11.22230469 5.68640625 11.25710937 4.9453125 11.29296875 C4.30335938 11.19628906 3.66140625 11.09960938 3 11 C0.43383368 7.15075052 0.44902324 4.5650696 0 0 Z " fill="#946475" transform="translate(141,127)"/>
<path d="M0 0 C0.33 0.66 0.66 1.32 1 2 C-0.21258505 5.23356015 -1.01284458 6.00856305 -4 8 C-6.04296875 8.1953125 -6.04296875 8.1953125 -8.1875 8.125 C-10.0746875 8.063125 -10.0746875 8.063125 -12 8 C-12 7.01 -12 6.02 -12 5 C-9.02148438 5.04882812 -9.02148438 5.04882812 -6.04296875 5.09765625 C-3.79694539 5.08263217 -3.79694539 5.08263217 -1 4 C-0.26676204 1.98491642 -0.26676204 1.98491642 0 0 Z " fill="#EFB23C" transform="translate(153,88)"/>
<path d="M0 0 C1.32 0.33 2.64 0.66 4 1 C4 1.66 4 2.32 4 3 C4.66 3 5.32 3 6 3 C6 3.66 6 4.32 6 5 C6.99 5.33 7.98 5.66 9 6 C9.33 7.65 9.66 9.3 10 11 C9.34 10.67 8.68 10.34 8 10 C8 9.34 8 8.68 8 8 C7.4225 7.773125 6.845 7.54625 6.25 7.3125 C3.41941846 5.66132744 1.89809894 3.64378067 0 1 C0 0.67 0 0.34 0 0 Z " fill="#FBF3C7" transform="translate(208,80)"/>
<path d="M0 0 C4.43379675 2.21689838 6.46636932 4.77728219 9 9 C6.61435923 8.42415568 4.33317216 7.77772405 2 7 C0.8125 3.4375 0.8125 3.4375 0 0 Z " fill="#DEC65A" transform="translate(197,71)"/>
<path d="M0 0 C2.475 0.495 2.475 0.495 5 1 C5 1.66 5 2.32 5 3 C5.99 3.33 6.98 3.66 8 4 C8 5.65 8 7.3 8 9 C6.84775972 8.07038578 5.70340824 7.1309875 4.5625 6.1875 C3.60537109 5.40439453 3.60537109 5.40439453 2.62890625 4.60546875 C1 3 1 3 0 0 Z " fill="#F8E3DF" transform="translate(136,8)"/>
<path d="M0 0 C0.33 0 0.66 0 1 0 C1.3125 3.1875 1.3125 3.1875 1 7 C-1.5 9.9375 -1.5 9.9375 -4 12 C-4.33 11.34 -4.66 10.68 -5 10 C-4.00390625 7.6171875 -4.00390625 7.6171875 -2.5625 4.875 C-1.85287109 3.50988281 -1.85287109 3.50988281 -1.12890625 2.1171875 C-0.75636719 1.41851562 -0.38382812 0.71984375 0 0 Z " fill="#D8F1F4" transform="translate(102,184)"/>
<path d="M0 0 C0.33 0 0.66 0 1 0 C1.33774332 2.22850277 1.6700187 4.45783467 2 6.6875 C2.185625 7.92886719 2.37125 9.17023438 2.5625 10.44921875 C2.92100411 13.35886371 3.08942256 16.07700022 3 19 C2.67 18.01 2.34 17.02 2 16 C1.34 16 0.68 16 0 16 C0 10.72 0 5.44 0 0 Z " fill="#D9F3F7" transform="translate(39,170)"/>
<path d="M0 0 C1.65 0 3.3 0 5 0 C5 0.66 5 1.32 5 2 C7.97 2.495 7.97 2.495 11 3 C10.67 5.31 10.34 7.62 10 10 C6.19047619 5.42857143 6.19047619 5.42857143 5 2.75 C4.1304373 0.78571015 4.1304373 0.78571015 1.875 0.25 C0.946875 0.12625 0.946875 0.12625 0 0 Z " fill="#59B087" transform="translate(80,109)"/>
<path d="M0 0 C0.66 0 1.32 0 2 0 C1.45660208 4.56454251 0.20536179 7.9728176 -2 12 C-2.33 12 -2.66 12 -3 12 C-2.88541307 10.56163249 -2.75790884 9.12429034 -2.625 7.6875 C-2.55539063 6.88699219 -2.48578125 6.08648437 -2.4140625 5.26171875 C-2 3 -2 3 0 0 Z " fill="#D7673F" transform="translate(158,68)"/>
<path d="M0 0 C2.125 0.9375 2.125 0.9375 4 2 C2.37750059 2.83819158 0.75191503 3.6704116 -0.875 4.5 C-2.23238281 5.19609375 -2.23238281 5.19609375 -3.6171875 5.90625 C-6 7 -6 7 -8 7 C-8 6.01 -8 5.02 -8 4 C-5.33333333 2.66666667 -2.66666667 1.33333333 0 0 Z " fill="#FAF0EA" transform="translate(103,20)"/>
<path d="M0 0 C0 0.66 0 1.32 0 2 C-1.423125 2.12375 -1.423125 2.12375 -2.875 2.25 C-4.421875 2.62125 -4.421875 2.62125 -6 3 C-7.22527948 4.95021083 -7.22527948 4.95021083 -8 7 C-8.99 7.33 -9.98 7.66 -11 8 C-11.66 7.34 -12.32 6.68 -13 6 C-11.54195831 5.18697675 -10.08355685 4.37459869 -8.625 3.5625 C-7.40683594 2.88380859 -7.40683594 2.88380859 -6.1640625 2.19140625 C-2.18360656 0 -2.18360656 0 0 0 Z " fill="#9B79A3" transform="translate(141,128)"/>
<path d="M0 0 C1.65 0 3.3 0 5 0 C5.103125 0.639375 5.20625 1.27875 5.3125 1.9375 C5.539375 2.618125 5.76625 3.29875 6 4 C6.99 4.33 7.98 4.66 9 5 C9.33 6.65 9.66 8.3 10 10 C6.12948725 6.92118304 2.97088618 3.99926986 0 0 Z " fill="#F7DCD6" transform="translate(146,19)"/>
<path d="M0 0 C3.3 0.33 6.6 0.66 10 1 C6.55549263 3.29633824 4.06187717 3.54016485 0 4 C0 2.68 0 1.36 0 0 Z " fill="#8F598C" transform="translate(146,138)"/>
<path d="M0 0 C-0.125 2.3125 -0.125 2.3125 -1 5 C-3.9375 6.875 -3.9375 6.875 -7 8 C-7.66 7.67 -8.32 7.34 -9 7 C-7.35 6.01 -5.7 5.02 -4 4 C-4.66 3.34 -5.32 2.68 -6 2 C-2.25 0 -2.25 0 0 0 Z " fill="#539BB7" transform="translate(48,128)"/>
<path d="M0 0 C0.99 0 1.98 0 3 0 C1.77472971 4.05281712 0.30119506 7.44360764 -2 11 C-3 9 -3 9 -2.44140625 6.8359375 C-2.15136719 6.02382812 -1.86132812 5.21171875 -1.5625 4.375 C-1.27503906 3.55773437 -0.98757812 2.74046875 -0.69140625 1.8984375 C-0.46324219 1.27195313 -0.23507813 0.64546875 0 0 Z " fill="#DFCB6D" transform="translate(202,132)"/>
<path d="M0 0 C2 3.75 2 3.75 2 6 C3.65 6.33 5.3 6.66 7 7 C7 7.66 7 8.32 7 9 C5.35 9 3.7 9 2 9 C0.14223235 5.86501708 -0.20140476 3.62528568 0 0 Z " fill="#E3BA47" transform="translate(145,127)"/>
<path d="M0 0 C0.6875 1.625 0.6875 1.625 1 4 C-0.4375 7.25 -0.4375 7.25 -2 10 C-2.33 10 -2.66 10 -3 10 C-3.29296875 3.9453125 -3.29296875 3.9453125 -3 2 C-2.01 1.34 -1.02 0.68 0 0 Z " fill="#77B489" transform="translate(95,102)"/>
<path d="M0 0 C0 0.99 0 1.98 0 3 C-4.01804691 3.84098656 -7.01803543 4.05404945 -11 3 C-11 2.67 -11 2.34 -11 2 C-3.375 0 -3.375 0 0 0 Z " fill="#55A893" transform="translate(64,119)"/>
<path d="M0 0 C0.66 0.33 1.32 0.66 2 1 C-0.1875 3.5625 -0.1875 3.5625 -3 6 C-5.8125 5.8125 -5.8125 5.8125 -8 5 C-6.35197949 1.70395897 -3.32254422 1.22409524 0 0 Z " fill="#D37F80" transform="translate(105,22)"/>
<path d="M0 0 C1.16945792 0.80847729 2.33550461 1.62189112 3.5 2.4375 C4.47453125 3.11619141 4.47453125 3.11619141 5.46875 3.80859375 C5.9740625 4.20175781 6.479375 4.59492188 7 5 C7 5.33 7 5.66 7 6 C5.02 6 3.04 6 1 6 C-0.0625 4.125 -0.0625 4.125 -1 2 C-0.67 1.34 -0.34 0.68 0 0 Z " fill="#D26B6C" transform="translate(143,17)"/>
<path d="M0 0 C0.33 0.66 0.66 1.32 1 2 C0.06421005 4.35981813 -0.93347808 6.69631264 -2 9 C-2.33 9 -2.66 9 -3 9 C-3.1875 5.625 -3.1875 5.625 -3 2 C-2.01 1.34 -1.02 0.68 0 0 Z " fill="#ECFAFA" transform="translate(106,180)"/>
<path d="M0 0 C0 0.66 0 1.32 0 2 C1.65 1.67 3.3 1.34 5 1 C4.67 1.66 4.34 2.32 4 3 C1.67843403 3.40729228 -0.6568787 3.74438677 -3 4 C-3.66 3.01 -4.32 2.02 -5 1 C-3 0 -3 0 0 0 Z " fill="#E4E6F0" transform="translate(115,137)"/>
<path d="M0 0 C0.99 0.33 1.98 0.66 3 1 C3 1.99 3 2.98 3 4 C3.804375 4.268125 4.60875 4.53625 5.4375 4.8125 C6.283125 5.204375 7.12875 5.59625 8 6 C8.33 6.99 8.66 7.98 9 9 C8.34 9 7.68 9 7 9 C7 8.34 7 7.68 7 7 C4.525 6.01 4.525 6.01 2 5 C2 4.34 2 3.68 2 3 C1.34 3 0.68 3 0 3 C0 2.01 0 1.02 0 0 Z " fill="#E2BC39" transform="translate(189,65)"/>
<path d="M0 0 C-0.33 1.32 -0.66 2.64 -1 4 C-2.65 4.33 -4.3 4.66 -6 5 C-6 4.01 -6 3.02 -6 2 C-2.25 0 -2.25 0 0 0 Z " fill="#6DB286" transform="translate(42,55)"/>
<path d="M0 0 C1.32 0.66 2.64 1.32 4 2 C4 2.66 4 3.32 4 4 C3.34 4 2.68 4 2 4 C2 4.66 2 5.32 2 6 C1.01 5.67 0.02 5.34 -1 5 C-0.67 3.35 -0.34 1.7 0 0 Z " fill="#91679A" transform="translate(172,142)"/>
<path d="M0 0 C0.66 1.32 1.32 2.64 2 4 C1.525625 4.45375 1.05125 4.9075 0.5625 5.375 C-1.09027808 6.93258204 -1.09027808 6.93258204 -2 9 C-2.66 8.67 -3.32 8.34 -4 8 C-1.125 1.125 -1.125 1.125 0 0 Z " fill="#D5F1DE" transform="translate(99,98)"/>
<path d="M0 0 C0.66 0.33 1.32 0.66 2 1 C1.67 2.65 1.34 4.3 1 6 C0.34 6 -0.32 6 -1 6 C-1.66 7.32 -2.32 8.64 -3 10 C-2.49287967 6.28111761 -1.88391785 3.26545761 0 0 Z " fill="#779E72" transform="translate(105,81)"/>
<path d="M0 0 C0.99 0 1.98 0 3 0 C3.1875 2.375 3.1875 2.375 3 5 C2.01 5.66 1.02 6.32 0 7 C0 4.69 0 2.38 0 0 Z " fill="#DBBF43" transform="translate(217,99)"/>
<path d="M0 0 C0.66 1.32 1.32 2.64 2 4 C0.625 6 0.625 6 -1 8 C-1.66 8 -2.32 8 -3 8 C-1.125 2.25 -1.125 2.25 0 0 Z " fill="#EADDEE" transform="translate(181,178)"/>
<path d="M0 0 C0.66 0 1.32 0 2 0 C1.6875 2.875 1.6875 2.875 1 6 C0.01 6.66 -0.98 7.32 -2 8 C-1.47731534 5.23723823 -0.89130413 2.6739124 0 0 Z " fill="#CCE3F0" transform="translate(107,173)"/>
<path d="M0 0 C0.99 0.33 1.98 0.66 3 1 C2.0409375 1.5878125 2.0409375 1.5878125 1.0625 2.1875 C-1.43778819 4.38472296 -1.64950425 5.75791433 -2 9 C-2.33 9 -2.66 9 -3 9 C-3.36923077 3.46153846 -3.36923077 3.46153846 -1.5 1.125 C-1.005 0.75375 -0.51 0.3825 0 0 Z " fill="#7463A3" transform="translate(109,144)"/>
<path d="M0 0 C1.32 0 2.64 0 4 0 C4 0.66 4 1.32 4 2 C1.6875 4.1875 1.6875 4.1875 -1 6 C-1.99 5.67 -2.98 5.34 -4 5 C-3.01 4.34 -2.02 3.68 -1 3 C-0.67 2.01 -0.34 1.02 0 0 Z " fill="#825D99" transform="translate(112,142)"/>
<path d="M0 0 C2.64 0 5.28 0 8 0 C8 0.33 8 0.66 8 1 C5.69 1 3.38 1 1 1 C0.67 2.32 0.34 3.64 0 5 C-0.66 5 -1.32 5 -2 5 C-1.34 3.35 -0.68 1.7 0 0 Z " fill="#E1E6D8" transform="translate(104,88)"/>
<path d="M0 0 C1.7074998 1.28062485 3.37373596 2.61767557 5 4 C5 4.66 5 5.32 5 6 C3.35 5.67 1.7 5.34 0 5 C0 3.35 0 1.7 0 0 Z " fill="#70B387" transform="translate(83,52)"/>
<path d="M0 0 C0.99 0.33 1.98 0.66 3 1 C3.33 2.65 3.66 4.3 4 6 C2.02 4.68 0.04 3.36 -2 2 C-1.34 1.34 -0.68 0.68 0 0 Z " fill="#FAE7E2" transform="translate(165,35)"/>
</svg>
